HIERARCHY
ROOT Hips
{
  OFFSET 13.6774 106.653 -34.4427
  CHANNELS 6 Xposition Yposition Zposition Zrotation Xrotation Yrotation
  JOINT ToSpine
  {
    OFFSET -2.69724 7.43032 -0.144315
    CHANNELS 3 Zrotation Xrotation Yrotation
    JOINT Spine
    {
      OFFSET -0.0310711 10.7595 1.96963
      CHANNELS 3 Zrotation Xrotation Yrotation
      JOINT Spine1
      {
        OFFSET 19.9056 3.91189 0.764692
        CHANNELS 3 Zrotation Xrotation Yrotation
        JOINT Neck
        {
          OFFSET 25.9749 7.03908 -0.130764
          CHANNELS 3 Zrotation Xrotation Yrotation
          JOINT Head
          {
            OFFSET 9.52751 0.295786 -0.907742
            CHANNELS 3 Zrotation Xrotation Yrotation
            End Site
            {
              OFFSET 16.4037 0.713936 2.7358
            }
          }
        }
        JOINT LeftShoulder
        {
          OFFSET 17.7449 4.33886 11.7777
          CHANNELS 3 Zrotation Xrotation Yrotation
          JOINT LeftArm
          {
            OFFSET 0.911315 1.27913 9.80584
            CHANNELS 3 Zrotation Xrotation Yrotation
            JOINT LeftForeArm
            {
              OFFSET 28.6126 1.18197 -3.53199
              CHANNELS 3 Zrotation Xrotation Yrotation
              JOINT LeftHand
              {
                OFFSET 27.5088 0.0218783 0.327423
                CHANNELS 3 Zrotation Xrotation Yrotation
                End Site
                {
                  OFFSET 18.6038 -0.000155887 0.382096
                }
              }
            }
          }
        }
        JOINT RightShoulder
        {
          OFFSET 17.1009 2.89543 -12.2328
          CHANNELS 3 Zrotation Xrotation Yrotation
          JOINT RightArm
          {
            OFFSET 1.4228 0.178766 -10.211
            CHANNELS 3 Zrotation Xrotation Yrotation
            JOINT RightForeArm
            {
              OFFSET 28.733 1.87905 2.64907
              CHANNELS 3 Zrotation Xrotation Yrotation
              JOINT RightHand
              {
                OFFSET 27.4588 0.290562 -0.101845
                CHANNELS 3 Zrotation Xrotation Yrotation
                End Site
                {
                  OFFSET 17.8396 -0.255518 -0.000602873
                }
              }
            }
          }
        }
      }
    }
  }
  JOINT LeftUpLeg
  {
    OFFSET -5.61296 -2.22332 -10.2353
    CHANNELS 3 Zrotation Xrotation Yrotation
    JOINT LeftLeg
    {
      OFFSET 2.56703 -44.7417 -7.93097
      CHANNELS 3 Zrotation Xrotation Yrotation
      JOINT LeftFoot
      {
        OFFSET 3.16933 -46.5642 -3.96578
        CHANNELS 3 Zrotation Xrotation Yrotation
        JOINT LeftToeBase
        {
          OFFSET 0.346054 -6.02161 12.8035
          CHANNELS 3 Zrotation Xrotation Yrotation
          End Site
          {
            OFFSET 0.134235 -1.35082 5.13018
          }
        }
      }
    }
  }
  JOINT RightUpLeg
  {
    OFFSET -5.7928 -1.72406 10.6446
    CHANNELS 3 Zrotation Xrotation Yrotation
    JOINT RightLeg
    {
      OFFSET -2.57161 -44.7178 -7.85259
      CHANNELS 3 Zrotation Xrotation Yrotation
      JOINT RightFoot
      {
        OFFSET -3.10148 -46.5936 -4.03391
        CHANNELS 3 Zrotation Xrotation Yrotation
        JOINT RightToeBase
        {
          OFFSET -0.0828122 -6.13587 12.8035
          CHANNELS 3 Zrotation Xrotation Yrotation
          End Site
          {
            OFFSET -0.131328 -1.35082 5.13018
          }
        }
      }
    }
  }
}
MOTION
Frames: 17
Frame Time: 0.03333333333333333
0.0000 93.1000 0.0000 -18.3414 3.3567 -12.3706 -70.8697 -0.0637 88.1045 95.2137 68.7802 -4.8789 -3.8334 18.9709 -2.0784 -176.7985 44.2344 161.7264 -166.6726 82.7767 -165.2207 0.9260 -10.0502 -22.8561 -125.8411 -15.9085 -35.2692 14.0526 -15.0888 -132.7622 -0.1167 -0.1488 0.2364 -2.0005 6.9331 41.1635 -124.2862 16.1784 57.0326 19.8276 18.1603 130.1613 -0.1204 0.3083 0.2127 -48.9438 -3.7507 87.1774 -3.7120 38.0509 -23.1225 -4.1147 -3.8256 -1.0174 23.4724 -42.9528 7.1135 -50.2442 3.9492 96.6581 0.7593 35.2906 10.0531 -3.2964 -1.0623 0.0565 7.2895 -40.2982 10.0166 
0.0000 93.1000 0.0000 -18.2965 3.2416 -11.6079 -70.9874 -0.3672 88.1919 95.0863 68.4641 -4.1274 -4.0569 18.5726 -2.1466 -175.8107 44.1111 161.5614 -160.6252 82.1815 -171.5685 0.7494 -10.2142 -22.8891 -125.9347 -15.2340 -35.1333 14.1847 -15.2364 -132.7667 0.0044 -0.3886 0.2543 -2.1710 6.7525 41.2060 -124.2850 16.2378 56.9133 20.1071 18.1279 130.1375 -0.0468 0.4251 0.2713 -48.9642 -3.7111 87.0538 -3.7945 37.8507 -23.1096 -3.6498 -3.6831 -0.9537 24.0836 -42.9711 7.9009 -50.3335 3.8464 96.6454 0.8606 35.3331 10.8310 -2.8764 -1.1345 -0.2383 6.9190 -40.1848 9.2336 
0.0000 93.1000 0.0000 -18.4119 3.1510 -11.6231 -70.9531 -0.3921 88.1211 95.1462 68.3427 -3.9990 -4.0012 18.8741 -2.0752 -176.2068 44.2795 162.0346 -164.8347 82.5314 -167.1452 0.6487 -10.1576 -22.9212 -125.6450 -15.3172 -35.0481 14.7606 -15.2390 -132.8346 -0.1864 -0.2649 0.0258 -2.1224 6.7950 41.1967 -124.7933 16.0741 56.8093 20.1331 18.4911 130.2425 0.0081 0.2128 -0.0438 -48.5116 -4.0892 87.1948 -3.6600 36.8186 -23.3799 -3.3690 -3.9230 -0.9683 24.2954 -43.2335 8.6483 -50.3286 3.6598 96.5522 1.0477 35.1507 9.9353 -3.8316 -0.1888 -0.1783 6.8862 -41.7117 8.9669 
0.0000 93.1000 0.0000 -18.3801 3.3282 -11.4647 -70.9839 -0.3109 88.1660 95.0473 68.5654 -3.8061 -4.0425 19.0511 -2.2299 -176.1814 44.1524 162.4816 -168.1368 82.6461 -164.2943 0.7463 -9.8916 -22.9184 -126.0765 -16.0452 -35.0144 13.8684 -15.1339 -132.9744 -0.1250 -0.0381 0.3284 -2.1081 6.8755 41.2244 -124.3826 15.9886 57.1090 20.1094 18.2869 130.0580 -0.1720 0.3202 0.0844 -48.8569 -4.0913 87.1097 -3.7344 37.1143 -23.1603 -3.6072 -3.7529 -0.9415 24.5089 -42.9857 7.3792 -50.2951 3.7507 96.8041 0.5296 35.3349 10.0471 -3.4289 -0.7775 -0.1702 7.0255 -41.2938 10.1099 
0.0000 93.1000 0.0000 -18.3256 3.4446 -11.4955 -70.9290 -0.1844 88.1180 95.1301 68.3257 -4.1857 -4.1232 19.1196 -2.3673 -176.3682 44.2799 162.6672 -167.8248 82.2615 -164.8263 0.7685 -9.9591 -22.8754 -125.9603 -16.1980 -34.9383 13.9780 -15.0608 -132.8604 -0.0134 -0.0318 0.2149 -1.9848 6.8098 41.3625 -125.3035 15.9726 57.2112 19.8673 17.8198 130.2979 -0.4501 0.3909 0.3377 -48.9076 -3.9782 86.9844 -3.9696 38.1397 -22.7759 -3.2135 -3.6920 -1.1886 24.0638 -42.9803 7.2388 -50.3593 3.8780 96.5910 1.1022 35.3890 10.6189 -3.7444 -0.3253 -0.0340 7.3249 -40.9097 10.0765 
0.0000 93.1000 0.0000 -18.4412 3.1865 -11.6212 -71.0164 -0.3339 88.1049 95.0696 68.5943 -3.9586 -4.2381 18.9834 -2.2717 -176.5523 44.3723 162.3439 -170.5905 82.5905 -162.0131 0.8348 -10.1572 -22.9442 -125.7348 -16.1821 -34.8680 13.9686 -15.2987 -132.7866 -0.1148 -0.0382 0.1586 -2.3236 6.8162 41.0895 -125.1328 16.0432 56.9122 19.8389 18.3541 130.1208 -0.3211 0.4159 0.2466 -48.7701 -4.0942 87.0535 -3.9111 38.0161 -22.9752 -3.1283 -3.8886 -1.0581 23.9731 -42.7914 7.5675 -50.4799 3.9770 96.4520 0.9852 35.4731 9.3628 -3.2551 -0.0945 -0.0373 7.0864 -41.0582 11.1382 
0.0000 93.1000 0.0000 -18.3078 3.4551 -11.8604 -71.1965 -0.2715 88.1201 93.9866 68.3785 -4.1929 -4.0206 18.9125 -1.9153 -176.5578 44.2903 162.4561 -167.8577 82.3329 -163.7971 0.6801 -9.9248 -23.0910 -126.1244 -16.2793 -35.0655 13.8178 -14.7908 -132.9407 0.1749 -0.0722 0.1945 -2.7742 6.5809 41.2757 -125.0957 16.0650 56.9851 18.9101 18.0240 130.1460 -0.2415 0.4332 0.0689 -49.0095 -4.1574 87.1178 -4.1781 36.9364 -23.1935 -3.7510 -3.8273 -0.9722 24.1560 -42.9383 7.8480 -50.0038 4.0341 95.6833 1.0653 35.2116 10.5585 -3.0935 -0.1488 -0.0143 7.1341 -41.2455 9.2063 
0.0000 93.1000 0.0000 -18.7812 3.2962 -11.5973 -71.0989 -0.2781 88.2267 95.1193 68.4945 -4.1992 -4.1844 18.9273 -2.0353 -175.6063 44.2582 162.5437 -168.1973 82.8235 -163.3387 0.5894 -10.0498 -23.1370 -125.8902 -16.2335 -34.9925 14.0894 -14.9968 -133.1832 0.0707 -0.2303 0.3752 -2.8189 6.7794 41.2776 -125.2523 16.0566 57.2408 18.8342 18.1919 130.0451 -0.2407 0.5901 0.3673 -48.8070 -4.3249 86.9440 -3.9448 37.0282 -22.9339 -3.6443 -4.5043 -0.8868 23.5692 -42.9150 6.8275 -50.1903 3.9987 96.2948 1.1181 35.5811 10.7010 -3.9508 -0.0156 -0.1202 7.3389 -42.1541 8.0224 
0.0000 93.1000 0.0000 -18.2633 3.2330 -11.8540 -71.0858 -0.0531 88.2394 94.1575 68.4857 -4.0798 -4.2155 18.9532 -2.2517 -176.5629 44.3662 163.5190 -174.2153 82.7549 -157.0575 0.7389 -10.0164 -22.9222 -126.1086 -16.2998 -35.0599 14.1008 -15.1419 -133.1403 0.0181 -0.2771 0.4166 -2.8330 6.7080 41.1409 -125.2106 16.0733 57.1317 19.2001 17.8304 130.1403 -0.3690 0.8398 0.4834 -48.7147 -3.9475 86.9504 -3.9170 37.1775 -23.0536 -3.2064 -3.7546 -1.0996 23.6894 -42.8173 6.7910 -50.1259 3.9254 96.4524 1.0961 35.6610 10.6121 -3.7737 -0.0890 -0.2386 7.1933 -41.3559 9.0979 
0.0000 93.1000 0.0000 -18.7279 3.1778 -11.9649 -71.0092 0.0604 88.2705 95.1510 68.4505 -3.9164 -4.2362 18.8838 -2.1589 -176.4624 44.1551 162.9174 -177.3795 83.0797 -156.0447 0.7673 -9.9581 -22.9559 -125.9972 -16.2107 -35.0130 14.8355 -15.1790 -133.2478 0.4161 -0.1691 0.5848 -2.9240 6.6942 41.1733 -125.1432 15.7182 57.0982 18.8694 18.0106 130.1590 -0.5084 0.9297 0.7450 -48.8956 -3.3394 86.9348 -3.9929 37.0006 -23.1200 -3.0095 -3.5649 -1.0397 23.7993 -42.9163 7.0683 -50.0167 4.2316 96.4151 1.0835 35.5799 10.6023 -4.1524 0.0087 -0.2227 7.6503 -41.1020 8.9063 
0.0000 93.1000 0.0000 -18.3318 3.4966 -11.9711 -70.9031 1.4417 88.2873 95.0304 68.4214 -4.1220 -2.9333 18.8115 -1.3005 -176.4840 44.2708 163.0624 -177.9951 82.8754 -155.4394 3.0048 -10.2128 -22.9687 -126.0786 -16.1505 -34.9797 14.6901 -14.9103 -133.2990 -0.5688 1.7491 -1.6015 -2.2296 7.1656 41.0743 -124.7992 16.0411 56.7763 18.2813 18.1596 129.5889 0.6861 -2.6521 -1.5384 -48.9172 -4.1279 87.0490 -4.1759 37.4516 -22.8818 -2.0287 -3.9249 -2.3934 24.9518 -42.7475 6.8897 -50.4660 4.0895 96.0336 0.6132 35.3770 11.1136 -3.5879 -0.4804 1.0716 6.8134 -41.5745 8.9628 
0.0000 93.1000 0.0000 -18.2774 3.2218 -12.0009 -70.7078 -1.4011 88.1889 95.1751 68.6490 -4.4792 -5.2235 18.9309 -3.2592 -176.4520 43.9870 163.9118 178.4469 83.0295 -150.3196 -1.1041 -9.9518 -22.9182 -125.8537 -16.1049 -34.8998 14.2034 -15.1475 -133.1798 1.2144 -2.2029 2.0314 -3.4649 6.4797 41.5141 -125.2193 16.0243 56.9894 19.7423 18.1487 130.1987 -0.8784 3.6739 2.7361 -49.0556 -4.3298 87.0370 -3.9043 37.0241 -23.2049 -3.2491 -3.7329 0.2548 23.4682 -43.0816 7.1032 -49.9479 4.0353 95.7572 1.1813 35.6981 10.5976 -3.6498 0.1634 -1.3981 7.9820 -40.9128 9.2827 
0.0000 93.1000 0.0000 -18.4759 3.4158 -12.0487 -70.7732 1.8370 88.4943 95.1977 68.1737 -3.9860 -3.0597 18.6810 -0.8487 -176.5398 44.2885 164.2503 -180.0028 82.8835 -153.0658 2.8366 -10.4389 -23.1606 -127.1316 -16.1603 -34.8622 14.6063 -14.7738 -133.2830 -0.8315 1.8442 -1.7488 -1.8199 7.3167 40.8769 -125.0960 16.0177 57.0015 18.2548 18.0301 129.7611 0.4707 -3.4108 -1.5891 -48.8456 -3.2716 87.8335 -4.7970 37.4048 -22.2862 -2.3303 -3.8565 -2.2867 25.3800 -43.7787 8.0796 -50.4861 4.2095 96.1198 0.8094 35.5614 10.1706 -3.2742 -0.7033 1.0759 6.7444 -42.3826 9.8724 
0.0000 93.1000 0.0000 -17.9913 3.2123 -11.7995 -70.9272 -0.2086 88.1142 95.2226 68.4595 -4.0821 -4.3980 19.0294 -2.3087 -176.5021 44.1044 163.8342 179.0889 83.0768 -151.3194 1.0553 -9.8710 -23.1360 -126.9093 -16.2281 -35.0415 14.2472 -15.1589 -133.1210 -0.1978 -0.2105 0.1539 -2.9641 6.8532 41.1721 -125.0691 16.0897 56.9727 18.9330 18.4004 129.9287 -0.1830 -0.0330 0.0446 -49.0880 -3.1859 88.0613 -4.6184 37.2414 -22.6124 -2.7629 -3.9456 -0.8193 25.0326 -43.8371 6.7496 -50.1805 3.8261 96.2028 0.7156 35.8192 9.6191 -3.4432 -1.2754 -0.1376 7.4225 -40.2900 11.3729 
0.0000 93.1000 0.0000 -18.0603 3.3914 -12.1777 -70.9695 0.0215 88.0457 95.1472 68.4489 -3.8340 -3.8863 18.9383 -2.0347 -176.4338 44.0061 163.9478 176.7538 83.2176 -148.4820 1.0864 -10.1534 -22.9990 -125.9452 -16.3170 -35.0635 14.7637 -15.2313 -133.3535 0.0648 0.0317 -0.1571 -2.9032 6.8739 41.1882 -125.2163 16.0403 56.8330 18.6671 18.2159 129.9944 -0.1286 -0.3773 -0.2630 -48.8461 -3.2111 87.7874 -4.3493 36.9988 -22.7118 -2.1302 -3.9586 -0.9269 24.1407 -43.9095 6.1369 -50.0712 3.8778 96.0527 0.8231 35.5114 9.2855 -2.8955 -0.4600 -0.0582 7.2267 -41.2108 10.6758 
0.0000 93.1000 0.0000 -17.7438 3.2922 -12.3203 -70.9540 0.2957 88.0970 95.2769 68.3421 -3.9111 -3.7671 18.9545 -1.7510 -176.3201 44.1003 164.7814 180.0404 83.0296 -149.7079 1.2866 -10.2442 -23.0713 -125.7305 -16.1067 -35.0222 13.8226 -15.0000 -133.4113 -0.0738 0.4791 -0.6067 -2.7775 7.0060 40.9899 -125.0621 16.1257 56.8146 18.5435 18.0815 129.7690 0.1285 -1.1896 -0.6703 -48.9915 -3.1646 87.3018 -4.6014 37.2330 -23.0200 -2.3573 -3.7885 -1.0871 24.5141 -44.2068 7.1947 -49.9767 4.0617 96.2333 0.4812 35.7042 8.9070 -3.7085 -0.2794 0.4444 6.9979 -41.5354 9.2747 
0.0000 93.1000 0.0000 -17.8695 3.1074 -12.4853 -70.9904 0.5377 88.1564 94.0749 68.3793 -3.8323 -3.6029 18.8586 -1.5227 -176.2913 44.2464 164.2890 179.1947 83.1268 -150.2599 1.7420 -10.2583 -23.0540 -125.7642 -16.1639 -35.6965 14.1350 -15.0192 -133.4107 -0.6392 1.0716 -1.1206 -2.5803 7.1662 41.0437 -124.9454 16.8926 56.6461 18.3883 18.2729 129.8750 0.6295 -1.8662 -1.4416 -49.2864 -3.2224 88.0225 -4.5668 37.2247 -22.3350 -1.5901 -4.1448 -1.6984 24.6991 -43.8522 6.8229 -50.2147 3.9301 96.3118 0.4128 35.5781 11.0725 -2.5053 -0.5549 0.8103 6.4514 -41.5403 9.2739 
